<svg width="18" height="18" viewBox="0 0 18 18" fill="none" xmlns="http://www.w3.org/2000/svg">
<g clip-path="url(#clip0_69_452)">
<path d="M7.701 15.75C7.83266 15.978 8.02201 16.1674 8.25003 16.299C8.47805 16.4306 8.73671 16.4999 9 16.4999C9.26329 16.4999 9.52195 16.4306 9.74997 16.299C9.97799 16.1674 10.1673 15.978 10.299 15.75M16.5 6C16.5 4.275 15.9 2.775 15 1.5M3 1.5C2.1 2.775 1.5 4.275 1.5 6M2.4465 11.4945C2.34852 11.6019 2.28387 11.7354 2.26039 11.8789C2.23692 12.0223 2.25564 12.1695 2.31428 12.3025C2.37292 12.4356 2.46895 12.5487 2.59069 12.6281C2.71243 12.7075 2.85463 12.7499 3 12.75H15C15.1453 12.7501 15.2876 12.7079 15.4094 12.6286C15.5312 12.5493 15.6274 12.4363 15.6862 12.3034C15.745 12.1705 15.7639 12.0233 15.7406 11.8798C15.7173 11.7364 15.6528 11.6028 15.555 11.4952C14.5575 10.467 13.5 9.37425 13.5 6C13.5 4.80653 13.0259 3.66193 12.182 2.81802C11.3381 1.97411 10.1935 1.5 9 1.5C7.80653 1.5 6.66193 1.97411 5.81802 2.81802C4.97411 3.66193 4.5 4.80653 4.5 6C4.5 9.37425 3.44175 10.467 2.4465 11.4945Z" stroke="#64748B" stroke-width="1.5" stroke-linecap="round" stroke-linejoin="round"/>
</g>
<defs>
<clipPath id="clip0_69_452">
<rect width="18" height="18" fill="white"/>
</clipPath>
</defs>
</svg>
