<svg width="32" height="32" viewBox="0 0 32 32" fill="none" xmlns="http://www.w3.org/2000/svg">
<path d="M28.28 21.1867C27.4318 23.1926 26.1051 24.9603 24.4158 26.3351C22.7266 27.7098 20.7264 28.6499 18.5899 29.073C16.4535 29.4962 14.2459 29.3895 12.1602 28.7624C10.0745 28.1353 8.17418 27.0068 6.62537 25.4755C5.07656 23.9443 3.92643 22.057 3.27552 19.9786C2.62462 17.9002 2.49276 15.694 2.89147 13.5528C3.29019 11.4117 4.20734 9.40084 5.56274 7.69604C6.91814 5.99124 8.67052 4.64442 10.6667 3.77333M28 16C28.736 16 29.34 15.4013 29.2667 14.6693C28.9593 11.6082 27.6028 8.7476 25.4271 6.57243C23.2514 4.39726 20.3905 3.04138 17.3293 2.73467C16.596 2.66133 15.9987 3.26533 15.9987 4.00133V14.668C15.9987 15.0216 16.1392 15.3608 16.3892 15.6108C16.6392 15.8609 16.9784 16.0013 17.332 16.0013L28 16Z" stroke="white" stroke-width="2.5" stroke-linecap="round" stroke-linejoin="round"/>
</svg>
