<svg width="24" height="24" viewBox="0 0 24 24" fill="none" xmlns="http://www.w3.org/2000/svg">
<path d="M9.671 4.13591C9.7261 3.55625 9.99533 3.01795 10.4261 2.62619C10.8569 2.23442 11.4182 2.01733 12.0005 2.01733C12.5828 2.01733 13.1441 2.23442 13.5749 2.62619C14.0057 3.01795 14.2749 3.55625 14.33 4.13591C14.3631 4.51036 14.486 4.87133 14.6881 5.18825C14.8903 5.50517 15.1659 5.76872 15.4915 5.95658C15.8171 6.14445 16.1831 6.25111 16.5587 6.26753C16.9343 6.28395 17.3082 6.20964 17.649 6.05091C18.1781 5.81069 18.7777 5.77593 19.331 5.95339C19.8843 6.13086 20.3518 6.50786 20.6425 7.01101C20.9332 7.51417 21.0263 8.10748 20.9036 8.67548C20.781 9.24348 20.4514 9.74552 19.979 10.0839C19.6714 10.2998 19.4203 10.5865 19.2469 10.9199C19.0736 11.2533 18.983 11.6236 18.983 11.9994C18.983 12.3752 19.0736 12.7455 19.2469 13.0789C19.4203 13.4123 19.6714 13.6991 19.979 13.9149C20.4514 14.2533 20.781 14.7553 20.9036 15.3233C21.0263 15.8913 20.9332 16.4846 20.6425 16.9878C20.3518 17.491 19.8843 17.868 19.331 18.0454C18.7777 18.2229 18.1781 18.1881 17.649 17.9479C17.3082 17.7892 16.9343 17.7149 16.5587 17.7313C16.1831 17.7477 15.8171 17.8544 15.4915 18.0422C15.1659 18.2301 14.8903 18.4936 14.6881 18.8106C14.486 19.1275 14.3631 19.4885 14.33 19.8629C14.2749 20.4426 14.0057 20.9809 13.5749 21.3726C13.1441 21.7644 12.5828 21.9815 12.0005 21.9815C11.4182 21.9815 10.8569 21.7644 10.4261 21.3726C9.99533 20.9809 9.7261 20.4426 9.671 19.8629C9.63794 19.4883 9.5151 19.1272 9.31286 18.8102C9.11063 18.4931 8.83497 18.2295 8.50923 18.0416C8.18349 17.8537 7.81727 17.7471 7.44158 17.7308C7.06589 17.7145 6.6918 17.789 6.351 17.9479C5.82189 18.1881 5.22233 18.2229 4.669 18.0454C4.11567 17.868 3.64817 17.491 3.35748 16.9878C3.06679 16.4846 2.97371 15.8913 3.09636 15.3233C3.219 14.7553 3.5486 14.2533 4.021 13.9149C4.32862 13.6991 4.57973 13.4123 4.75309 13.0789C4.92645 12.7455 5.01695 12.3752 5.01695 11.9994C5.01695 11.6236 4.92645 11.2533 4.75309 10.9199C4.57973 10.5865 4.32862 10.2998 4.021 10.0839C3.54926 9.74535 3.22025 9.2435 3.0979 8.67589C2.97555 8.10828 3.06861 7.51545 3.35898 7.01262C3.64936 6.50979 4.11631 6.13288 4.66909 5.95515C5.22187 5.77741 5.82098 5.81154 6.35 6.05091C6.69076 6.20964 7.06474 6.28395 7.4403 6.26753C7.81586 6.25111 8.18193 6.14445 8.50754 5.95658C8.83314 5.76872 9.10869 5.50517 9.31086 5.18825C9.51304 4.87133 9.63588 4.51036 9.669 4.13591M15 11.9999C15 13.6568 13.6569 14.9999 12 14.9999C10.3431 14.9999 9 13.6568 9 11.9999C9 10.3431 10.3431 8.99991 12 8.99991C13.6569 8.99991 15 10.3431 15 11.9999Z" stroke="#64748B" stroke-width="2" stroke-linecap="round" stroke-linejoin="round"/>
</svg>
