<svg width="24" height="24" viewBox="0 0 24 24" fill="none" xmlns="http://www.w3.org/2000/svg">
<path d="M11 10V14M11 14H15M11 14L12.535 12.395C13.109 11.8433 13.8065 11.4367 14.5694 11.2089C15.3323 10.9812 16.1386 10.9389 16.9211 11.0856C17.7037 11.2324 18.4399 11.5638 19.0684 12.0525C19.697 12.5411 20.1998 13.1728 20.535 13.895M16 2V6M21 18L19.465 19.605C18.891 20.1567 18.1935 20.5633 17.4306 20.7911C16.6677 21.0188 15.8614 21.0611 15.0789 20.9144C14.2963 20.7676 13.5601 20.4362 12.9316 19.9475C12.303 19.4589 11.8002 18.8272 11.465 18.105M21 18V22M21 18H17M21 8.5V6C21 5.46957 20.7893 4.96086 20.4142 4.58579C20.0391 4.21071 19.5304 4 19 4H5C4.46957 4 3.96086 4.21071 3.58579 4.58579C3.21071 4.96086 3 5.46957 3 6V20C3 20.5304 3.21071 21.0391 3.58579 21.4142C3.96086 21.7893 4.46957 22 5 22H9.3M3 10H7M8 2V6" stroke="#64748B" stroke-width="2" stroke-linecap="round" stroke-linejoin="round"/>
</svg>
