<svg width="24" height="24" viewBox="0 0 24 24" fill="none" xmlns="http://www.w3.org/2000/svg">
<path d="M3 3V19C3 19.5304 3.21071 20.0391 3.58579 20.4142C3.96086 20.7893 4.46957 21 5 21H21M16 5H18C18.5523 5 19 5.44772 19 6V16C19 16.5523 18.5523 17 18 17H16C15.4477 17 15 16.5523 15 16V6C15 5.44772 15.4477 5 16 5ZM8 8H10C10.5523 8 11 8.44772 11 9V16C11 16.5523 10.5523 17 10 17H8C7.44772 17 7 16.5523 7 16V9C7 8.44772 7.44772 8 8 8Z" stroke="#64748B" stroke-width="2" stroke-linecap="round" stroke-linejoin="round"/>
</svg>
