<svg width="18" height="18" viewBox="0 0 18 18" fill="none" xmlns="http://www.w3.org/2000/svg">
<path d="M13.1892 10.1841L10.9392 9.05906C10.8507 9.01493 10.752 8.99494 10.6533 9.00111C10.5545 9.00728 10.4591 9.0394 10.3767 9.09422L9.34384 9.78328C8.86969 9.52262 8.47949 9.13243 8.21884 8.65828L8.9079 7.62539C8.96272 7.54301 8.99484 7.44762 9.00101 7.34886C9.00718 7.2501 8.98719 7.15146 8.94306 7.06289L7.81806 4.81289C7.77143 4.71872 7.69935 4.6395 7.61 4.5842C7.52065 4.52889 7.41759 4.49973 7.31251 4.5C6.56659 4.5 5.85122 4.79632 5.32377 5.32376C4.79633 5.85121 4.50001 6.56658 4.50001 7.3125C4.50187 8.95296 5.15436 10.5257 6.31434 11.6857C7.47432 12.8456 9.04705 13.4981 10.6875 13.5C11.0569 13.5 11.4226 13.4273 11.7638 13.2859C12.105 13.1446 12.4151 12.9374 12.6762 12.6762C12.9374 12.4151 13.1446 12.105 13.2859 11.7638C13.4273 11.4226 13.5 11.0568 13.5 10.6875C13.5001 10.583 13.471 10.4805 13.4162 10.3916C13.3613 10.3027 13.2827 10.2308 13.1892 10.1841ZM10.6875 12.375C9.34531 12.3735 8.05851 11.8397 7.10943 10.8906C6.16035 9.9415 5.6265 8.6547 5.62501 7.3125C5.6249 6.92235 5.75998 6.54421 6.00727 6.24244C6.25456 5.94067 6.59877 5.73391 6.98134 5.65734L7.78852 7.27453L7.10157 8.29688C7.05024 8.37388 7.0187 8.46236 7.00974 8.55447C7.00079 8.64658 7.0147 8.73947 7.05024 8.82492C7.4527 9.78144 8.21365 10.5424 9.17017 10.9448C9.25587 10.982 9.34947 10.9972 9.44252 10.9891C9.53557 10.981 9.62513 10.9498 9.70313 10.8984L10.7304 10.2136L12.3476 11.0208C12.2704 11.4038 12.0628 11.7482 11.76 11.9951C11.4573 12.2421 11.0782 12.3763 10.6875 12.375ZM9.00001 1.6875C7.73752 1.68722 6.49647 2.01381 5.39766 2.63547C4.29884 3.25714 3.37968 4.15269 2.72966 5.23498C2.07964 6.31726 1.72089 7.5494 1.68834 8.81146C1.65579 10.0735 1.95055 11.3225 2.54392 12.4369L1.74587 14.831C1.67976 15.0292 1.67017 15.242 1.71816 15.4453C1.76616 15.6487 1.86984 15.8347 2.01759 15.9824C2.16534 16.1302 2.35133 16.2339 2.55469 16.2818C2.75806 16.3298 2.97077 16.3202 3.16899 16.2541L5.56313 15.4561C6.54383 15.9777 7.63047 16.269 8.74058 16.308C9.85068 16.347 10.9551 16.1325 11.9699 15.6809C12.9848 15.2293 13.8834 14.5525 14.5976 13.7017C15.3118 12.851 15.8228 11.8487 16.0918 10.771C16.3608 9.69326 16.3808 8.56842 16.1502 7.48184C15.9196 6.39525 15.4444 5.37549 14.7609 4.49994C14.0773 3.6244 13.2033 2.91608 12.2051 2.42877C11.2069 1.94146 10.1108 1.68796 9.00001 1.6875ZM9.00001 15.1875C7.91226 15.1882 6.84359 14.9018 5.90204 14.3571C5.8331 14.3171 5.75646 14.2923 5.67718 14.2841C5.59791 14.276 5.51781 14.2848 5.4422 14.31L2.81251 15.1875L3.68931 12.5578C3.71458 12.4823 3.72351 12.4022 3.71551 12.3229C3.70751 12.2436 3.68276 12.167 3.6429 12.098C2.96085 10.9188 2.68701 9.54744 2.86386 8.19672C3.04071 6.846 3.65836 5.5914 4.62101 4.62754C5.58365 3.66368 6.83747 3.04444 8.18797 2.86588C9.53846 2.68733 10.9101 2.95944 12.0902 3.64C13.2703 4.32056 14.1927 5.37153 14.7146 6.62987C15.2364 7.88822 15.3283 9.28359 14.9762 10.5995C14.624 11.9155 13.8474 13.0784 12.7669 13.908C11.6864 14.7375 10.3623 15.1873 9.00001 15.1875Z" fill="#16A34A"/>
</svg>
