<svg width="82" height="28" viewBox="0 0 82 28" fill="none" xmlns="http://www.w3.org/2000/svg">
<path d="M14.467 7.94621C14.3687 6.90732 13.9467 6.10025 13.201 5.525C12.4553 4.94975 11.4433 4.66212 10.165 4.66212C9.29641 4.66212 8.56302 4.79091 7.96484 5.04848C7.36666 5.29748 6.90778 5.6452 6.5882 6.09167C6.27682 6.53813 6.12113 7.0447 6.12113 7.61136C6.10474 8.08359 6.19897 8.49571 6.40383 8.84773C6.61688 9.19975 6.90778 9.50455 7.27652 9.76212C7.64526 10.0111 8.07137 10.23 8.55483 10.4189C9.03829 10.5992 9.55453 10.7538 10.1035 10.8826L12.3652 11.4492C13.4632 11.7068 14.4711 12.0503 15.3889 12.4795C16.3066 12.9088 17.1015 13.4369 17.7734 14.0636C18.4453 14.6904 18.9657 15.4288 19.3344 16.2788C19.7113 17.1288 19.9039 18.1033 19.9121 19.2023C19.9039 20.8164 19.5106 22.2159 18.7321 23.4008C17.9619 24.577 16.8474 25.4914 15.3889 26.1439C13.9385 26.7879 12.189 27.1098 10.1404 27.1098C8.10824 27.1098 6.33828 26.7836 4.83053 26.1311C3.33097 25.4785 2.15919 24.5126 1.31518 23.2333C0.479366 21.9455 0.0409714 20.3528 0 18.4553H5.15011C5.20747 19.3396 5.4492 20.078 5.8753 20.6705C6.3096 21.2543 6.88729 21.6965 7.60839 21.997C8.33768 22.2889 9.16121 22.4348 10.079 22.4348C10.9803 22.4348 11.7629 22.2975 12.4266 22.0227C13.0986 21.748 13.6189 21.3659 13.9876 20.8765C14.3564 20.3871 14.5408 19.8247 14.5408 19.1894C14.5408 18.597 14.3728 18.099 14.0368 17.6955C13.709 17.2919 13.2256 16.9485 12.5864 16.6651C11.9555 16.3818 11.1811 16.1242 10.2633 15.8924L7.52235 15.1712C5.40003 14.6303 3.7243 13.7846 2.49516 12.6341C1.26602 11.4836 0.655542 9.93384 0.663737 7.98485C0.655542 6.38788 1.06116 4.99268 1.88059 3.79924C2.70821 2.60581 3.84312 1.67424 5.28531 1.00455C6.7275 0.334849 8.36636 0 10.2019 0C12.0702 0 13.7008 0.334849 15.0939 1.00455C16.4951 1.67424 17.5849 2.60581 18.3634 3.79924C19.1418 4.99268 19.5434 6.375 19.5679 7.94621H14.467Z" fill="#0F172A"/>
<path d="M29.5148 27.2C28.3184 27.2 27.2327 26.9639 26.2575 26.4917C25.2824 26.0109 24.5081 25.3197 23.9345 24.4182C23.3609 23.5081 23.0741 22.4091 23.0741 21.1212C23.0741 19.9879 23.2871 19.0692 23.7132 18.3652C24.1393 17.6525 24.7088 17.0944 25.4217 16.6909C26.1346 16.2874 26.9213 15.9869 27.7817 15.7894C28.6503 15.5833 29.523 15.4202 30.3998 15.3C31.547 15.1455 32.477 15.0295 33.1899 14.9523C33.911 14.8664 34.4354 14.7247 34.7632 14.5273C35.0992 14.3298 35.2672 13.9864 35.2672 13.497V13.3939C35.2672 12.1232 34.9353 11.1359 34.2716 10.4318C33.616 9.72778 32.6204 9.37576 31.2847 9.37576C29.8999 9.37576 28.8142 9.69343 28.0275 10.3288C27.2409 10.9641 26.6877 11.6424 26.3682 12.3636L23.6149 11.3333C24.1065 10.1313 24.7621 9.19545 25.5815 8.52576C26.4091 7.84747 27.3105 7.37525 28.2856 7.10909C29.2689 6.83434 30.2359 6.69697 31.1864 6.69697C31.7928 6.69697 32.4893 6.77424 33.2759 6.92879C34.0708 7.07475 34.837 7.37954 35.5744 7.84318C36.3201 8.30682 36.9388 9.00657 37.4305 9.94242C37.9221 10.8783 38.1679 12.1318 38.1679 13.703V26.7364H35.2672V24.0576H35.1197C34.923 24.4869 34.5952 24.9462 34.1363 25.4356C33.6775 25.925 33.067 26.3414 32.3049 26.6848C31.5429 27.0283 30.6128 27.2 29.5148 27.2ZM29.9573 24.4697C31.1045 24.4697 32.0714 24.2336 32.858 23.7614C33.6529 23.2891 34.2511 22.6795 34.6526 21.9326C35.0623 21.1856 35.2672 20.4 35.2672 19.5758V16.7939C35.1442 16.9485 34.8738 17.0902 34.4559 17.2189C34.0462 17.3391 33.5709 17.4465 33.0301 17.5409C32.4975 17.6268 31.9772 17.704 31.4691 17.7727C30.9693 17.8328 30.5636 17.8843 30.2523 17.9273C29.4984 18.0303 28.7937 18.1977 28.1381 18.4295C27.4908 18.6528 26.9664 18.9919 26.5648 19.447C26.1715 19.8934 25.9748 20.503 25.9748 21.2758C25.9748 22.3318 26.3477 23.1303 27.0934 23.6712C27.8472 24.2035 28.8019 24.4697 29.9573 24.4697Z" fill="#0F172A"/>
<path d="M49.0182 27.2C47.8218 27.2 46.7361 26.9639 45.761 26.4917C44.7858 26.0109 44.0115 25.3197 43.4379 24.4182C42.8643 23.5081 42.5775 22.4091 42.5775 21.1212C42.5775 19.9879 42.7905 19.0692 43.2166 18.3652C43.6427 17.6525 44.2122 17.0944 44.9251 16.6909C45.638 16.2874 46.4247 15.9869 47.2851 15.7894C48.1537 15.5833 49.0264 15.4202 49.9032 15.3C51.0504 15.1455 51.9804 15.0295 52.6933 14.9523C53.4144 14.8664 53.9389 14.7247 54.2666 14.5273C54.6026 14.3298 54.7706 13.9864 54.7706 13.497V13.3939C54.7706 12.1232 54.4387 11.1359 53.775 10.4318C53.1194 9.72778 52.1238 9.37576 50.7881 9.37576C49.4033 9.37576 48.3176 9.69343 47.5309 10.3288C46.7443 10.9641 46.1912 11.6424 45.8716 12.3636L43.1183 11.3333C43.61 10.1313 44.2655 9.19545 45.0849 8.52576C45.9126 7.84747 46.8139 7.37525 47.789 7.10909C48.7724 6.83434 49.7393 6.69697 50.6898 6.69697C51.2962 6.69697 51.9927 6.77424 52.7794 6.92879C53.5742 7.07475 54.3404 7.37954 55.0779 7.84318C55.8235 8.30682 56.4422 9.00657 56.9339 9.94242C57.4255 10.8783 57.6713 12.1318 57.6713 13.703V26.7364H54.7706V24.0576H54.6231C54.4264 24.4869 54.0986 24.9462 53.6398 25.4356C53.1809 25.925 52.5704 26.3414 51.8083 26.6848C51.0463 27.0283 50.1162 27.2 49.0182 27.2ZM49.4607 24.4697C50.6079 24.4697 51.5748 24.2336 52.3615 23.7614C53.1563 23.2891 53.7545 22.6795 54.156 21.9326C54.5657 21.1856 54.7706 20.4 54.7706 19.5758V16.7939C54.6477 16.9485 54.3772 17.0902 53.9593 17.2189C53.5496 17.3391 53.0744 17.4465 52.5335 17.5409C52.0009 17.6268 51.4806 17.704 50.9725 17.7727C50.4727 17.8328 50.0671 17.8843 49.7557 17.9273C49.0018 18.0303 48.2971 18.1977 47.6415 18.4295C46.9942 18.6528 46.4698 18.9919 46.0682 19.447C45.6749 19.8934 45.4783 20.503 45.4783 21.2758C45.4783 22.3318 45.8511 23.1303 46.5968 23.6712C47.3506 24.2035 48.3053 24.4697 49.4607 24.4697Z" fill="#0F172A"/>
<path d="M76.1546 7.94621C76.0562 6.90732 75.6342 6.10025 74.8885 5.525C74.1429 4.94975 73.1309 4.66212 71.8526 4.66212C70.984 4.66212 70.2506 4.79091 69.6524 5.04848C69.0542 5.29748 68.5953 5.6452 68.2758 6.09167C67.9644 6.53813 67.8087 7.0447 67.8087 7.61136C67.7923 8.08359 67.8865 8.49571 68.0914 8.84773C68.3045 9.19975 68.5953 9.50455 68.9641 9.76212C69.3328 10.0111 69.7589 10.23 70.2424 10.4189C70.7259 10.5992 71.2421 10.7538 71.7911 10.8826L74.0527 11.4492C75.1508 11.7068 76.1587 12.0503 77.0764 12.4795C77.9942 12.9088 78.789 13.4369 79.461 14.0636C80.1329 14.6904 80.6532 15.4288 81.022 16.2788C81.3989 17.1288 81.5915 18.1033 81.5997 19.2023C81.5915 20.8164 81.1982 22.2159 80.4197 23.4008C79.6494 24.577 78.535 25.4914 77.0764 26.1439C75.626 26.7879 73.8766 27.1098 71.828 27.1098C69.7958 27.1098 68.0258 26.7836 66.5181 26.1311C65.0185 25.4785 63.8468 24.5126 63.0027 23.2333C62.1669 21.9455 61.7285 20.3528 61.6876 18.4553H66.8377C66.895 19.3396 67.1368 20.078 67.5629 20.6705C67.9972 21.2543 68.5749 21.6965 69.296 21.997C70.0252 22.2889 70.8488 22.4348 71.7665 22.4348C72.6679 22.4348 73.4505 22.2975 74.1142 22.0227C74.7861 21.748 75.3065 21.3659 75.6752 20.8765C76.0439 20.3871 76.2283 19.8247 76.2283 19.1894C76.2283 18.597 76.0603 18.099 75.7244 17.6955C75.3966 17.2919 74.9131 16.9485 74.274 16.6651C73.643 16.3818 72.8687 16.1242 71.9509 15.8924L69.2099 15.1712C67.0876 14.6303 65.4119 13.7846 64.1827 12.6341C62.9536 11.4836 62.3431 9.93384 62.3513 7.98485C62.3431 6.38788 62.7487 4.99268 63.5682 3.79924C64.3958 2.60581 65.5307 1.67424 66.9729 1.00455C68.4151 0.334849 70.0539 0 71.8894 0C73.7577 0 75.3884 0.334849 76.7814 1.00455C78.1827 1.67424 79.2725 2.60581 80.0509 3.79924C80.8294 4.99268 81.2309 6.375 81.2555 7.94621H76.1546Z" fill="#0F172A"/>
</svg>
