<svg width="32" height="32" viewBox="0 0 32 32" fill="none" xmlns="http://www.w3.org/2000/svg">
<path d="M13.6907 28C13.9247 28.4054 14.2614 28.742 14.6667 28.976C15.0721 29.21 15.5319 29.3332 16 29.3332C16.4681 29.3332 16.9279 29.21 17.3333 28.976C17.7386 28.742 18.0753 28.4054 18.3093 28M4.34934 20.4347C4.17516 20.6256 4.06021 20.863 4.01848 21.118C3.97674 21.3731 4.01003 21.6347 4.11428 21.8712C4.21853 22.1077 4.38925 22.3087 4.60568 22.45C4.8221 22.5912 5.07491 22.6665 5.33334 22.6667H26.6667C26.9251 22.6668 27.1779 22.5918 27.3945 22.4508C27.6111 22.3099 27.782 22.109 27.8865 21.8727C27.991 21.6364 28.0247 21.3748 27.9833 21.1197C27.9419 20.8647 27.8272 20.6271 27.6533 20.436C25.88 18.608 24 16.6653 24 10.6667C24 8.54494 23.1571 6.51011 21.6569 5.00982C20.1566 3.50953 18.1217 2.66667 16 2.66667C13.8783 2.66667 11.8434 3.50953 10.3431 5.00982C8.84286 6.51011 8 8.54494 8 10.6667C8 16.6653 6.11867 18.608 4.34934 20.4347Z" stroke="white" stroke-width="2.5" stroke-linecap="round" stroke-linejoin="round"/>
</svg>
