<svg width="32" height="32" viewBox="0 0 32 32" fill="none" xmlns="http://www.w3.org/2000/svg">
<path d="M29.3333 16C29.3333 23.3638 23.3638 29.3333 16 29.3333M29.3333 16C29.3333 8.6362 23.3638 2.66666 16 2.66666M29.3333 16H2.66663M16 29.3333C8.63616 29.3333 2.66663 23.3638 2.66663 16M16 29.3333C12.5763 25.7385 10.6666 20.9643 10.6666 16C10.6666 11.0357 12.5763 6.26154 16 2.66666M16 29.3333C19.4236 25.7385 21.3333 20.9643 21.3333 16C21.3333 11.0357 19.4236 6.26154 16 2.66666M2.66663 16C2.66663 8.6362 8.63616 2.66666 16 2.66666" stroke="white" stroke-width="2.5" stroke-linecap="round" stroke-linejoin="round"/>
</svg>
